<?xml version="1.0" standalone="no"?><!DOCTYPE svg PUBLIC "-//W3C//DTD SVG 1.1//EN" "http://www.w3.org/Graphics/SVG/1.1/DTD/svg11.dtd"><svg t="1765792290820" class="icon" viewBox="0 0 1024 1024" version="1.1" xmlns="http://www.w3.org/2000/svg" p-id="8446" width="25" height="25" xmlns:xlink="http://www.w3.org/1999/xlink"><path d="M700.675437 77.546384a268.310488 268.310488 0 0 0-378.814085 0 268.69822 268.69822 0 0 0 77.546384 434.647482 455.972738 455.972738 0 0 0-222.17039 133.767512A520.723968 520.723968 0 0 0 41.531174 1003.83794a19.386596 19.386596 0 0 0 19.386596 19.386596 19.386596 19.386596 0 0 0 19.386596-19.386596 481.950776 481.950776 0 0 1 126.788338-330.347595 412.159031 412.159031 0 0 1 304.757289-136.093904 265.208633 265.208633 0 0 0 189.600908-77.546384A269.085952 269.085952 0 0 0 700.675437 77.546384z m-27.141234 352.448315A229.925028 229.925028 0 1 1 511.849993 38.773192a229.925028 229.925028 0 0 1 162.459674 392.384703zM844.52398 647.124574a465.278304 465.278304 0 0 0-101.973495-83.362363 18.998864 18.998864 0 0 0-26.365771 6.203711 19.386596 19.386596 0 0 0 6.203711 26.753502 442.40212 442.40212 0 0 1 93.831125 77.546384 481.950776 481.950776 0 0 1 126.788337 330.347596 19.386596 19.386596 0 0 0 38.773192 0 520.723968 520.723968 0 0 0-137.257099-357.48883z" p-id="8447"></path></svg>