<?xml version="1.0" standalone="no"?><!DOCTYPE svg PUBLIC "-//W3C//DTD SVG 1.1//EN" "http://www.w3.org/Graphics/SVG/1.1/DTD/svg11.dtd"><svg t="1766372572671" class="icon" viewBox="0 0 1024 1024" version="1.1" xmlns="http://www.w3.org/2000/svg" p-id="11881" xmlns:xlink="http://www.w3.org/1999/xlink" width="25" height="25"><path d="M512 85.333333c235.648 0 426.666667 191.018667 426.666667 426.666667s-191.018667 426.666667-426.666667 426.666667S85.333333 747.648 85.333333 512 276.352 85.333333 512 85.333333z m170.837333 464.128c-14.72-22.4-25.344-38.528-65.792-32.128-76.373333 12.117333-84.864 25.472-88.490666 47.488l-1.024 6.656-1.066667 7.082667c-4.138667 29.141333-4.010667 40.149333 9.386667 54.186667 53.973333 56.661333 86.314667 97.493333 96.128 121.386666 4.778667 11.648 17.066667 46.933333 8.618666 81.834667a349.226667 349.226667 0 0 0 134.442667-95.445333c4.693333-15.957333 8.106667-35.84 8.106667-59.904v-4.48c0-39.338667 0-57.301333-27.818667-73.216a313.770667 313.770667 0 0 0-27.52-13.866667c-15.658667-7.125333-26.026667-11.776-40.021333-32.256-1.706667-2.432-3.328-4.864-4.949334-7.338667zM512 163.541333c-98.858667 0-188.16 41.216-251.562667 107.349334 7.552 5.248 14.122667 12.629333 18.645334 22.784 8.704 19.498667 8.704 39.594667 8.704 57.386666 0 13.994667 0 27.306667 4.48 36.906667 6.144 13.141333 32.682667 18.773333 56.106666 23.637333 8.405333 1.792 17.024 3.584 24.874667 5.76 21.589333 5.973333 38.314667 25.386667 51.669333 40.96 5.546667 6.442667 13.781333 15.957333 17.92 18.346667 2.133333-1.536 9.002667-9.002667 12.373334-21.248 2.645333-9.386667 1.877333-17.664-1.92-22.186667-23.893333-28.16-22.570667-82.346667-15.189334-102.357333 11.605333-31.530667 47.872-29.184 74.410667-27.477333 9.898667 0.64 19.2 1.28 26.197333 0.384 26.538667-3.328 34.730667-43.733333 40.490667-51.626667 12.458667-17.066667 50.602667-42.794667 74.24-58.666667A347.221333 347.221333 0 0 0 512 163.541333z" fill="#888888" p-id="11882"></path></svg>