<?xml version="1.0" standalone="no"?><!DOCTYPE svg PUBLIC "-//W3C//DTD SVG 1.1//EN" "http://www.w3.org/Graphics/SVG/1.1/DTD/svg11.dtd"><svg t="1766369163119" class="icon" viewBox="0 0 1024 1024" version="1.1" xmlns="http://www.w3.org/2000/svg" p-id="6592" xmlns:xlink="http://www.w3.org/1999/xlink" width="25" height="25"><path d="M512 967.0656c-251.392 0-455.0656-203.776-455.0656-455.0656S260.608 56.9344 512 56.9344s455.0656 203.776 455.0656 455.0656S763.392 967.0656 512 967.0656z m0-398.1312c31.4368 0 56.9344-25.4976 56.9344-56.9344 0-31.4368-25.4976-56.9344-56.9344-56.9344s-56.9344 25.4976-56.9344 56.9344 25.4976 56.9344 56.9344 56.9344z m-227.5328 0c31.4368 0 56.9344-25.4976 56.9344-56.9344 0-31.4368-25.4976-56.9344-56.9344-56.9344-31.4368 0-56.9344 25.4976-56.9344 56.9344s25.4976 56.9344 56.9344 56.9344z m455.0656 0c31.4368 0 56.9344-25.4976 56.9344-56.9344 0-31.4368-25.4976-56.9344-56.9344-56.9344-31.4368 0-56.9344 25.4976-56.9344 56.9344s25.4976 56.9344 56.9344 56.9344z" fill="#888888" p-id="6593"></path></svg>