<?xml version="1.0" standalone="no"?><!DOCTYPE svg PUBLIC "-//W3C//DTD SVG 1.1//EN" "http://www.w3.org/Graphics/SVG/1.1/DTD/svg11.dtd"><svg t="1765792611525" class="icon" viewBox="0 0 1024 1024" version="1.1" xmlns="http://www.w3.org/2000/svg" p-id="16342" xmlns:xlink="http://www.w3.org/1999/xlink" width="25" height="25"><path d="M836.838 1023.997 199.684 1023.997c-64 0-115.847-57.3-115.847-128L83.837 575.999c0-70.695 51.847-128 115.847-128l0-96C199.684 157.592 342.289 0 518.259 0c175.94 0 318.579 157.592 318.579 351.999l0 2.003-0.37 0c-1 16.68-13.24 30-28.605 30-15.33 0-27.605-13.32-28.575-30l-0.36 0 0-2.003c0-159.06-116.7-287.997-260.669-287.997S257.624 192.94 257.624 351.999l0 96 579.214 0c63.97 0 115.85 57.305 115.85 128l0 319.999C952.683 966.698 900.803 1023.997 836.838 1023.997L836.838 1023.997zM894.743 575.999c0-35.35-25.905-64-57.905-64L199.684 511.999c-32 0-57.94 28.65-57.94 64l0 319.999c0 35.35 25.94 64 57.94 64l637.153 0c31.97 0 57.905-28.65 57.905-64L894.742 575.999 894.743 575.999zM547.199 761.528l0 102.47c0 17.67-12.94 32-28.94 32-16 0-28.97-14.335-28.97-32l0-102.47c-33.575-13.26-57.91-47.86-57.91-89.515 0-53.03 38.88-96.015 86.88-96.015 47.97 0 86.88 42.985 86.88 96.015C605.138 713.668 580.773 748.268 547.199 761.528L547.199 761.528zM518.259 639.998c-16 0-28.97 14.33-28.97 32.015 0 17.65 12.97 31.985 28.97 31.985 16 0 28.94-14.335 28.94-31.985C547.199 654.328 534.259 639.998 518.259 639.998L518.259 639.998z" fill="#272636" p-id="16343"></path></svg>