<?xml version="1.0" standalone="no"?><!DOCTYPE svg PUBLIC "-//W3C//DTD SVG 1.1//EN" "http://www.w3.org/Graphics/SVG/1.1/DTD/svg11.dtd"><svg t="1766368425866" class="icon" viewBox="0 0 1024 1024" version="1.1" xmlns="http://www.w3.org/2000/svg" p-id="2579" xmlns:xlink="http://www.w3.org/1999/xlink" width="25" height="25"><path d="M958.821023 895.444089 716.121446 651.504264c46.672996-61.492516 74.424037-138.236388 74.424037-221.37183 0-201.612811-163.195849-365.642654-363.768981-365.642654-200.61611 0-363.814006 164.029844-363.814006 365.642654 0 201.619974 163.197896 365.665167 363.814006 365.665167 85.045955 0 163.367765-29.496801 225.38319-78.842673l242.137783 243.401566L958.821023 895.444089zM426.775478 713.502293c-155.466817 0-281.935184-127.127376-281.935184-283.369859 0-156.24146 126.468366-283.34837 281.935184-283.34837 155.439188 0 281.892205 127.105886 281.892205 283.34837C708.66666 586.374918 582.214666 713.502293 426.775478 713.502293z" fill="#8899A2" p-id="2580"></path></svg>