<?xml version="1.0" standalone="no"?><!DOCTYPE svg PUBLIC "-//W3C//DTD SVG 1.1//EN" "http://www.w3.org/Graphics/SVG/1.1/DTD/svg11.dtd"><svg t="1766372619989" class="icon" viewBox="0 0 1024 1024" version="1.1" xmlns="http://www.w3.org/2000/svg" p-id="13004" xmlns:xlink="http://www.w3.org/1999/xlink" width="25" height="25"><path d="M826.592 418.5664l-12.3136 0c-6.1888-19.6544-14.3168-38.432-24.0512-56.2112l9.7536-9.7536c34.9376-34.944 34.9376-91.5712 0-126.5216l-2.656-2.6368c-34.9568-34.9504-91.5648-34.9504-126.5024 0l-10.8928 10.8928c-17.9136-9.3952-36.8128-17.184-56.5568-23.0208l0-15.6992c0-49.408-40.0576-89.4592-89.4528-89.4592l-3.7632 0c-49.4016 0-89.4656 40.0512-89.4656 89.4592l0 16.8192c-18.8928 5.856-36.9984 13.472-54.176 22.6112l-11.6032-11.5968c-34.8992-34.9504-91.552-34.9504-126.496 0l-2.6688 2.6368c-34.8992 34.944-34.8992 91.5712 0 126.5216l11.2192 11.2192c-9.3632 17.344-17.1968 35.6352-23.2064 54.7456l-16.2752 0c-49.4016 0-89.4592 40.0512-89.4592 89.4592l0 3.7504c0 49.408 40.0512 89.4656 89.4592 89.4656l14.2528 0c5.8752 20.2048 13.8048 39.5264 23.3984 57.8368l-10.8224 10.816c-34.9504 34.9504-34.9504 91.5968 0 126.5472l2.6176 2.6688c34.9376 34.9376 91.5968 34.9376 126.5344 0l9.7088-9.7152c18.176 9.952 37.3888 18.24 57.5168 24.4736l0 13.1968c0 49.4016 40.0576 89.4528 89.4656 89.4528l3.7632 0c49.3952 0 89.4528-40.0512 89.4528-89.4528l0-12.0768c20.992-6.208 41.0048-14.6432 59.9168-24.8512l8.9664 8.9664c34.8928 34.9376 91.5968 34.9376 126.496 0l2.6752-2.6688c34.9376-34.9504 34.9376-91.5968 0-126.5472l-9.3568-9.3568c9.9584-18.7392 18.1696-38.5472 24.2112-59.3024l10.2976 0c49.3952 0 89.4592-40.0576 89.4592-89.4656l0-3.7504C916.0512 458.6176 875.9872 418.5664 826.592 418.5664zM514.1952 652.9984c-77.3632 0-140.0512-62.688-140.0512-139.9936 0-77.3696 62.6816-140.0448 140.0512-140.0448 77.312 0 139.9872 62.6752 139.9872 140.0448C654.1824 590.3104 591.5072 652.9984 514.1952 652.9984z" p-id="13005" fill="#888888"></path></svg>